<svg width="28" height="27" viewBox="0 0 28 27" fill="none" xmlns="http://www.w3.org/2000/svg">
<path d="M13.7166 12.3211H6.85831V19.1794H13.7166V12.3211ZM11.4305 16.8933H9.14441V14.6072H11.4305V16.8933ZM20.5749 14.6072V12.3211H18.2888V10.035C18.2888 8.77762 17.2601 7.74887 16.0027 7.74887H13.7166V5.46277H11.4305V7.74887H9.14441V5.46277H6.85831V7.74887H4.57221C3.31485 7.74887 2.2861 8.77762 2.2861 10.035V12.3211H0V14.6072H2.2861V16.8933H0V19.1794H2.2861V21.4655C2.2861 22.7228 3.31485 23.7516 4.57221 23.7516H6.85831V26.0377H9.14441V23.7516H11.4305V26.0377H13.7166V23.7516H16.0027C17.2601 23.7516 18.2888 22.7228 18.2888 21.4655V19.1794H20.5749V16.8933H18.2888V14.6072H20.5749ZM16.0027 21.4655H4.57221V10.035H16.0027V21.4655Z" fill="currentColor"/>
<path d="M20.4482 0C16.3343 0 13 3.33464 13 7.44817C13 11.5617 16.3343 14.8963 20.4482 14.8963C24.562 14.8963 27.8963 11.5614 27.8963 7.44817C27.8963 3.33497 24.5617 0 20.4482 0ZM20.899 10.766V11.6281C20.899 11.7627 20.7943 11.8605 20.6595 11.8605H20.0848C19.95 11.8605 19.8414 11.7627 19.8414 11.6281V10.8418C19.3124 10.8178 18.7789 10.705 18.375 10.5514C18.1562 10.4684 18.0344 10.2341 18.0924 10.0072L18.1861 9.6422C18.2188 9.51417 18.3044 9.40721 18.4214 9.34724C18.5384 9.28631 18.6758 9.28015 18.7987 9.32715C19.1834 9.47592 19.6378 9.58418 20.1231 9.58418C20.7409 9.58418 21.1638 9.34562 21.1638 8.91194C21.1638 8.49997 20.817 8.23969 20.0145 7.9684C18.8544 7.57814 18.06 7.0362 18.06 5.9844C18.06 5.03049 18.7351 4.2824 19.8894 4.05453V3.2682C19.8894 3.13368 20.0044 3.01311 20.1393 3.01311H20.714C20.8488 3.01311 20.9477 3.13368 20.9477 3.2682V3.97836C21.4523 4.00008 21.8166 4.07495 22.1213 4.17414C22.3518 4.24934 22.4879 4.49081 22.4273 4.72613L22.345 5.05285C22.3129 5.17732 22.2306 5.28298 22.1178 5.34392C22.005 5.40486 21.8717 5.41588 21.7499 5.37406C21.4731 5.27909 21.112 5.19288 20.6543 5.19288C19.9497 5.19288 19.7218 5.49659 19.7218 5.80029C19.7218 6.15813 20.1013 6.38567 21.0229 6.73281C22.3129 7.18822 22.8312 7.78461 22.8312 8.75992C22.8308 9.72485 22.1492 10.5494 20.899 10.766Z" fill="currentColor"/>
</svg>
