<svg width="18" height="20" viewBox="0 0 18 20" fill="none" xmlns="http://www.w3.org/2000/svg">
<g opacity="0.9">
<path d="M15.364 4.88695C13.9707 3.51645 12.201 2.65108 10.2843 2.38329L10.8452 1.83147C11.0677 1.61265 11.0677 1.2579 10.8452 1.03908C10.6228 0.820305 10.2622 0.820305 10.0397 1.03908L8.59722 2.45803C8.37477 2.67681 8.37477 3.0316 8.59722 3.25041L10.0397 4.66933C10.1509 4.77873 10.2967 4.83346 10.4424 4.83346C10.5882 4.83346 10.734 4.77873 10.8452 4.66933C11.0676 4.45055 11.0676 4.09576 10.8452 3.87694L10.5238 3.56086C14.1314 4.26086 16.8607 7.39606 16.8607 11.147C16.8608 15.4106 13.3344 18.8794 9 18.8794C4.66558 18.8794 1.13921 15.4106 1.13921 11.147C1.13921 9.52005 1.6468 7.96376 2.60715 6.64637C3.54757 5.35629 4.84398 4.39366 6.35636 3.86256C6.65263 3.7585 6.80703 3.43793 6.70127 3.14646C6.59551 2.85503 6.26955 2.70315 5.97328 2.80718C4.24157 3.41533 2.75745 4.51711 1.68132 5.99336C0.581375 7.50229 0 9.28439 0 11.147C0 13.5118 0.936162 15.7349 2.63605 17.4071C4.33594 19.0791 6.59601 20 9 20C11.404 20 13.6641 19.0791 15.364 17.407C17.0638 15.7349 18 13.5117 18 11.147C18 8.78225 17.0638 6.55904 15.364 4.88695Z" fill="#00D26B"/>
<path d="M9.80312 10.0558C9.28166 9.87147 8.70567 9.64933 8.38742 9.39972C8.30775 9.33723 8.27378 9.17898 8.30472 9.01476C8.32093 8.92862 8.39639 8.64087 8.68625 8.5536C9.19632 8.39992 9.54384 8.60202 9.66961 8.69593C9.96132 8.91399 10.3743 8.85431 10.5922 8.56269C10.8103 8.27107 10.7506 7.85803 10.459 7.64006C10.3382 7.54971 10.0435 7.35648 9.62167 7.25159V7.07471C9.62167 6.71066 9.32653 6.41553 8.96249 6.41553C8.59845 6.41553 8.30331 6.71066 8.30331 7.07471V7.29219C7.6389 7.49346 7.14311 8.05961 7.00916 8.7706C6.88528 9.42815 7.10163 10.0667 7.57386 10.437C8.04087 10.8033 8.71007 11.0677 9.36371 11.2987C9.87932 11.481 9.89453 11.8758 9.8577 12.0949C9.79622 12.4607 9.48847 12.856 8.95809 12.8595C8.4043 12.8631 8.24675 12.8382 7.82874 12.5647C7.52403 12.3654 7.11556 12.4508 6.91622 12.7555C6.71693 13.0602 6.80231 13.4687 7.10699 13.668C7.56164 13.9655 7.90235 14.0952 8.30331 14.1471V14.3449C8.30331 14.7089 8.59845 15.0041 8.96249 15.0041C9.32653 15.0041 9.62167 14.7089 9.62167 14.3449V14.0797C9.93227 13.9852 10.2161 13.8238 10.4608 13.5991C10.8276 13.2621 11.0751 12.8055 11.1578 12.3134C11.3267 11.3092 10.7823 10.4019 9.80312 10.0558Z" fill="#00D26B"/>
</g>
</svg>
