<svg width="19" height="19" viewBox="0 0 19 19" fill="none" xmlns="http://www.w3.org/2000/svg">
<circle cx="10" cy="17" r="2" fill="#00D26B"/>
<path d="M1.5 8.5L4 8V14H1.5V8.5Z" fill="#00D26B"/>
<path d="M17.5 8.5L15 8V14H17.5V8.5Z" fill="#00D26B"/>
<path d="M16.3643 7.85396H16.3173V6.70173C16.3173 3.00047 13.3168 0 9.61553 0C5.91423 0 2.9138 3.00047 2.9138 6.70173V7.85396H2.63164C1.59698 7.85396 0.797486 8.77101 0.797486 9.82922V12.7686C0.771426 13.7942 1.58177 14.6467 2.60738 14.6728C2.61548 14.673 2.62354 14.6732 2.63164 14.6733H4.37173C4.6182 14.6617 4.80863 14.4524 4.79702 14.206C4.79661 14.1971 4.79594 14.1882 4.79499 14.1794V8.41828C4.79499 8.13612 4.6304 7.85391 4.37173 7.85391H3.8544V6.70169C3.8544 3.51992 6.43377 0.94055 9.61553 0.94055C12.7973 0.94055 15.3767 3.51992 15.3767 6.70169V7.85391H14.8593C14.6007 7.85391 14.4361 8.13607 14.4361 8.41828V14.1794C14.4098 14.4248 14.5874 14.6449 14.8328 14.6712C14.8416 14.6721 14.8505 14.6728 14.8593 14.6732H15.4002L15.3531 14.7437C14.6475 15.6815 13.5403 16.2307 12.3667 16.2252C12.1098 14.9654 10.8803 14.1524 9.62053 14.4094C8.54324 14.6291 7.76652 15.5725 7.75784 16.672C7.77071 17.9615 8.81978 19 10.1093 18.9999C10.7477 18.9896 11.3562 18.7276 11.8024 18.2709C12.1034 17.9626 12.3007 17.568 12.3667 17.1422C13.8364 17.1478 15.2223 16.4592 16.1056 15.2846L16.5524 14.6261C17.5635 14.5556 18.1984 13.9207 18.1984 13.0036V10.0643C18.1985 9.05322 17.446 7.85396 16.3643 7.85396ZM3.8544 13.7327H2.63164C2.12529 13.7203 1.7248 13.2999 1.73714 12.7935C1.73736 12.7852 1.73768 12.7769 1.73808 12.7685V9.82917C1.73808 9.28835 2.11431 8.79451 2.63164 8.79451H3.8544V13.7327ZM11.1205 17.6126C10.8599 17.8952 10.4937 18.057 10.1094 18.0594C9.34431 18.0473 8.72346 17.4368 8.69848 16.672C8.69816 15.9058 9.31906 15.2844 10.0853 15.2841C10.8515 15.2838 11.4729 15.9046 11.4732 16.6709C11.4732 16.6712 11.4732 16.6716 11.4732 16.672C11.4928 17.0211 11.3648 17.3624 11.1205 17.6126ZM17.2579 13.0037C17.2579 13.6386 16.6465 13.7327 16.3643 13.7327H15.3767V8.79455H16.3643C16.8816 8.79455 17.2579 9.52352 17.2579 10.0643V13.0037Z" fill="#00D26B"/>
</svg>
