<svg width="21" height="19" viewBox="0 0 21 19" fill="none" xmlns="http://www.w3.org/2000/svg">
<path d="M20.2579 14.0931C20.1022 14.4519 19.83 14.5748 19.4417 14.5743C14.7022 14.5664 9.96275 14.569 5.22273 14.569C5.13726 14.569 5.04969 14.5737 4.96634 14.5584C4.50579 14.4751 4.29266 13.9676 4.55485 13.5614C4.88773 13.047 5.23697 12.5437 5.56774 12.0278C5.62103 11.945 5.64582 11.8184 5.62999 11.7208C5.2739 9.53724 4.91042 7.35478 4.54799 5.17178C4.33328 3.87982 4.11751 2.58785 3.89753 1.26898C3.81628 1.26898 3.73979 1.26898 3.66277 1.26898C2.71371 1.27003 1.76412 1.25948 0.815062 1.27848C0.426259 1.28692 0.155627 1.15556 0 0.797352C0 0.691842 0 0.586332 0 0.480823C0.153517 0.119452 0.427314 -0.00610409 0.81559 0.000226484C1.82426 0.017108 2.83293 0.00497442 3.84161 0.00655706C4.54166 0.00761216 5.03387 0.412242 5.15151 1.10386C5.42953 2.73345 5.6991 4.3641 5.96974 5.99528C6.29365 7.94405 6.61334 9.89386 6.94042 11.8426C6.97788 12.0653 6.9457 12.2583 6.8212 12.443C6.63708 12.7152 6.45719 12.99 6.25039 13.3013C6.35696 13.3013 6.43134 13.3013 6.50572 13.3013C10.8174 13.3018 15.129 13.305 19.4412 13.2971C19.829 13.2965 20.1033 13.4163 20.2573 13.7771C20.2579 13.8821 20.2579 13.9876 20.2579 14.0931Z" fill="#191E27"/>
<path d="M20.2591 3.32981C20.1283 3.82465 19.9953 4.31843 19.8672 4.8138C19.7827 5.13877 19.7063 5.46585 19.624 5.79135C19.5316 6.1543 19.3011 6.33683 18.9265 6.33683C16.4339 6.33789 13.9412 6.33789 11.4491 6.33683C11.0487 6.33683 10.7643 6.06937 10.7638 5.70114C10.7633 5.33502 11.0502 5.07124 11.4522 5.07072C13.7207 5.07019 15.9891 5.07019 18.2571 5.06966C18.3346 5.06966 18.4127 5.06966 18.4971 5.06966C18.6031 4.64604 18.705 4.2393 18.8142 3.8046C18.716 3.8046 18.6395 3.8046 18.5636 3.8046C14.7457 3.8046 10.9278 3.8046 7.10945 3.80407C7.01766 3.80407 6.9227 3.80777 6.83407 3.78877C6.51491 3.72125 6.30178 3.4216 6.33554 3.10243C6.3693 2.78274 6.63202 2.54165 6.96913 2.54007C8.03741 2.53585 9.1057 2.53743 10.174 2.53743C13.2601 2.53743 16.3458 2.54218 19.4319 2.53321C19.8387 2.53215 20.1193 2.66351 20.2597 3.05284C20.2591 3.14517 20.2591 3.23749 20.2591 3.32981Z" fill="#191E27"/>
<path d="M17.2316 10.1357C17.4527 9.25626 17.669 8.39531 17.8847 7.53435C17.9876 7.12497 18.3063 6.90287 18.6624 6.99308C19.039 7.08857 19.2158 7.41934 19.1129 7.84243C19.0369 8.1558 18.9551 8.46811 18.8771 8.78094C18.7046 9.47045 18.5336 10.1605 18.3601 10.85C18.2646 11.2298 18.0451 11.4013 17.651 11.4013C14.5332 11.4023 11.4154 11.4023 8.29761 11.4023C7.96579 11.4023 7.7305 11.2478 7.63501 10.9729C7.54744 10.7207 7.61338 10.4279 7.83759 10.285C7.97317 10.1985 8.15359 10.1425 8.31397 10.1415C10.3308 10.132 12.3481 10.1352 14.3649 10.1352C15.314 10.1357 16.2625 10.1357 17.2316 10.1357Z" fill="#191E27"/>
<path d="M6.96485 17.0945C6.96749 16.0463 7.81737 15.2011 8.86877 15.2017C9.91332 15.2022 10.7674 16.061 10.7621 17.1061C10.7569 18.1543 9.90646 19 8.85717 19C7.81473 19 6.96221 18.1417 6.96485 17.0945ZM9.49444 17.104C9.49655 16.7585 9.21695 16.4725 8.87246 16.4683C8.51953 16.4641 8.22991 16.7521 8.23149 17.1061C8.23308 17.4485 8.52112 17.7339 8.8635 17.7318C9.20904 17.7302 9.49233 17.4485 9.49444 17.104Z" fill="#191E27"/>
<path d="M15.1953 17.0961C15.1974 16.05 16.0499 15.2011 17.0987 15.2017C18.1427 15.2017 18.9974 16.0605 18.9931 17.1051C18.9884 18.1533 18.1385 18.9995 17.0897 19C16.0463 19.0005 15.1932 18.1433 15.1953 17.0961ZM17.726 17.1045C17.7281 16.7611 17.4474 16.4757 17.1019 16.4699C16.7574 16.4641 16.4688 16.7426 16.4625 17.0876C16.4562 17.4395 16.7468 17.7355 17.0955 17.7334C17.4411 17.7307 17.7239 17.449 17.726 17.1045Z" fill="#191E27"/>
</svg>
