<svg width="19" height="19" viewBox="0 0 19 19" fill="none" xmlns="http://www.w3.org/2000/svg">
<path d="M9.37192 0C9.36683 0.00509066 9.35665 0.00509066 9.34137 0.00509066C4.18962 0.00509066 0 4.19471 0 9.34646C0 11.4489 0.717784 13.4903 2.03118 15.1345L0.671968 18.2908C0.559973 18.5504 0.682149 18.8507 0.936683 18.9576C1.02831 18.9984 1.13013 19.0085 1.22685 18.9933L6.21061 18.1177C7.20838 18.4791 8.25706 18.6624 9.31592 18.6573C14.4677 18.6573 18.6573 14.4677 18.6573 9.31591C18.6675 4.17943 14.5084 0.00509066 9.37192 0ZM9.32101 17.6442C8.33851 17.6442 7.3662 17.4661 6.44479 17.1199C6.35824 17.0843 6.26661 17.0792 6.17498 17.0944L1.98027 17.8275L3.09004 15.2465C3.1664 15.0684 3.13585 14.8596 3.00858 14.712C2.40789 14.0146 1.92936 13.2205 1.59338 12.3601C1.21667 11.398 1.02322 10.3748 1.02322 9.34137C1.02322 4.74959 4.75977 1.01813 9.34647 1.01813C13.923 1.00795 17.6392 4.70886 17.6443 9.28537C17.6443 9.29555 17.6443 9.30573 17.6443 9.31591C17.6443 13.9128 13.9077 17.6442 9.32101 17.6442Z" fill="#00D26B"/>
<path d="M8.92209 7.46777H6.17313C5.89314 7.46777 5.66406 7.69685 5.66406 7.97684C5.66406 8.25683 5.89314 8.48591 6.17313 8.48591H8.92209C9.20208 8.48591 9.43116 8.25683 9.43116 7.97684C9.43116 7.69685 9.20208 7.46777 8.92209 7.46777Z" fill="#00D26B"/>
<path d="M12.4856 10.0134H6.17313C5.89314 10.0134 5.66406 10.2425 5.66406 10.5225C5.66406 10.8025 5.89314 11.0316 6.17313 11.0316H12.4856C12.7656 11.0316 12.9946 10.8025 12.9946 10.5225C12.9946 10.2425 12.7656 10.0134 12.4856 10.0134Z" fill="#00D26B"/>
</svg>
