<svg width="23" height="21" viewBox="0 0 23 21" fill="none" xmlns="http://www.w3.org/2000/svg">
<path d="M21.0117 0H1.62315C0.728272 0 0 0.728272 0 1.62363V13.3731C0 14.2683 0.728272 14.9967 1.62315 14.9967H8.49414V17.518H5.49923C5.03946 17.518 4.66606 17.8911 4.66606 18.3517V19.5553C4.66606 20.0159 5.03958 20.3889 5.49923 20.3889H17.1357C17.5955 20.3889 17.9688 20.0159 17.9688 19.5553V18.3517C17.9688 17.8911 17.5954 17.518 17.1357 17.518H14.1407V14.9967H21.0116C21.9065 14.9967 22.6348 14.2684 22.6348 13.3731V1.62363C22.6349 0.728272 21.9066 0 21.0117 0ZM1.58001 13.3731L1.62312 1.58005L21.0548 1.62363V13.4159L1.58001 13.3731ZM21.8449 12.4249C21.6196 12.4249 21.4366 12.242 21.4366 12.0172C21.4366 11.7915 21.6196 11.6089 21.8449 11.6089C22.0702 11.6089 22.2529 11.7914 22.2529 12.0172C22.2529 12.2421 22.0702 12.4249 21.8449 12.4249ZM21.8449 10.7227C21.6196 10.7227 21.4366 10.5402 21.4366 10.3145C21.4366 10.0896 21.6196 9.90684 21.8449 9.90684C22.0702 9.90684 22.2529 10.0897 22.2529 10.3145C22.2529 10.5402 22.0702 10.7227 21.8449 10.7227Z" fill="currentColor"/>
</svg>
