<svg width="11" height="17" viewBox="0 0 11 17" fill="none" xmlns="http://www.w3.org/2000/svg">
<path d="M10.2047 0.00336158L7.88716 0C5.28347 0 3.60085 1.56061 3.60085 3.97607V5.80931H1.27066C1.06931 5.80931 0.90625 5.95688 0.90625 6.13891V8.79507C0.90625 8.97709 1.06949 9.1245 1.27066 9.1245H3.60085V15.8268C3.60085 16.0088 3.76391 16.1562 3.96527 16.1562H7.00551C7.20686 16.1562 7.36992 16.0087 7.36992 15.8268V9.1245H10.0945C10.2958 9.1245 10.4589 8.97709 10.4589 8.79507L10.46 6.13891C10.46 6.05151 10.4215 5.96781 10.3533 5.90596C10.285 5.8441 10.1921 5.80931 10.0954 5.80931H7.36992V4.25525C7.36992 3.50831 7.56681 3.12913 8.64313 3.12913L10.2043 3.12862C10.4055 3.12862 10.5686 2.98105 10.5686 2.79919V0.332796C10.5686 0.151103 10.4057 0.00369774 10.2047 0.00336158Z" fill="white"/>
</svg>
