<svg width="18" height="17" viewBox="0 0 18 17" fill="none" xmlns="http://www.w3.org/2000/svg">
<path d="M0.569118 16.0095H2.84752C3.16185 16.0095 3.41664 15.7547 3.41664 15.4403V5.48147C3.41664 5.16711 3.16185 4.91235 2.84752 4.91235H0.569118C0.254756 4.91235 0 5.16711 0 5.48147V15.4403C0 15.7546 0.254756 16.0095 0.569118 16.0095Z" fill="white"/>
<path d="M0.569118 3.16147H2.84752C3.16185 3.16147 3.41664 2.90669 3.41664 2.59236V0.569118C3.41664 0.254787 3.16185 0 2.84752 0H0.569118C0.254756 0 0 0.254787 0 0.569118V2.59236C0 2.90669 0.254756 3.16147 0.569118 3.16147Z" fill="white"/>
<path d="M16.6705 6.06744C16.3504 5.646 15.8783 5.29943 15.2541 5.02777C14.6298 4.75631 13.9408 4.62048 13.1869 4.62048C11.6566 4.62048 10.3598 5.20453 9.29668 6.37286C9.08514 6.60532 8.93133 6.5545 8.93133 6.24014V5.48145C8.93133 5.16709 8.67651 4.91233 8.36218 4.91233H6.32693C6.01257 4.91233 5.75781 5.16709 5.75781 5.48145V15.4403C5.75781 15.7546 6.0126 16.0095 6.32693 16.0095H8.60534C8.9197 16.0095 9.17445 15.7546 9.17445 15.4403V11.9769C9.17445 10.534 9.26158 9.54502 9.43584 9.01005C9.61003 8.47508 9.93235 8.04549 10.4025 7.72124C10.8727 7.39699 11.4036 7.23478 11.9954 7.23478C12.4574 7.23478 12.8526 7.34829 13.1809 7.57533C13.5093 7.80234 13.7464 8.12035 13.8923 8.5298C14.0383 8.93918 14.1112 9.84096 14.1112 11.2352V15.4403C14.1112 15.7546 14.3659 16.0094 14.6803 16.0094H16.9587C17.273 16.0094 17.5278 15.7546 17.5278 15.4403V9.80041C17.5278 8.80342 17.4649 8.03735 17.3394 7.50238C17.2139 6.9674 16.9909 6.48909 16.6705 6.06744Z" fill="white"/>
</svg>
