<svg width="16" height="16" viewBox="0 0 16 16" fill="none" xmlns="http://www.w3.org/2000/svg">
<g clip-path="url(#clip0_623_1225)">
<path d="M10.5601 8.35396L10.3971 8.46626L10.5842 8.53084C11.7014 8.91635 12.7255 9.55321 13.5862 10.4138C15.0548 11.8825 15.8739 13.827 15.8994 15.9H14.8493C14.7956 12.1687 11.7438 9.15 8 9.15C4.25619 9.15 1.20438 12.1687 1.15072 15.9H0.100616C0.126148 13.827 0.945213 11.8825 2.41387 10.4138C3.27452 9.55321 4.29864 8.91635 5.41581 8.53084L5.60297 8.46626L5.43991 8.35396C4.25377 7.53703 3.475 6.17022 3.475 4.625C3.475 2.13001 5.50501 0.1 8 0.1C10.495 0.1 12.525 2.13001 12.525 4.625C12.525 6.17022 11.7462 7.53703 10.5601 8.35396ZM4.525 4.625C4.525 6.54123 6.0838 8.1 8 8.1C9.9162 8.1 11.475 6.54123 11.475 4.625C11.475 2.70877 9.9162 1.15 8 1.15C6.0838 1.15 4.525 2.70877 4.525 4.625Z" fill="#191E27" stroke="#191E27" stroke-width="0.2"/>
</g>
<defs>
<clipPath id="clip0_623_1225">
<rect width="16" height="16" fill="white"/>
</clipPath>
</defs>
</svg>
