<svg width="22" height="22" viewBox="0 0 22 22" fill="none" xmlns="http://www.w3.org/2000/svg">
<path d="M21.9618 3.31948C21.9272 3.07778 21.7591 2.87635 21.5275 2.79896C21.2972 2.72093 21.041 2.78194 20.8679 2.95442L19.9565 3.86646C19.4693 4.35363 18.6202 4.35363 18.1331 3.86646C17.629 3.36236 17.6292 2.54742 18.1331 2.04367L19.0445 1.13227C19.2169 0.959794 19.2773 0.704262 19.1999 0.472621C19.1225 0.24098 18.9211 0.0729314 18.6794 0.0383421C17.4766 -0.131597 16.2593 0.272476 15.3989 1.13162C14.4258 2.10532 14.0418 3.53664 14.3975 4.86783L4.86797 14.397L4.86733 14.3963C3.54116 14.0445 2.10168 14.4284 1.13176 15.3983C0.276999 16.2531 -0.132101 17.4798 0.0378384 18.6795C0.0724707 18.9212 0.240519 19.1226 0.472118 19.2C0.701868 19.2774 0.958646 19.217 1.13176 19.0445L2.04316 18.1325C2.53033 17.6453 3.37943 17.6453 3.8666 18.1325C4.3707 18.6365 4.37045 19.4514 3.8666 19.9553L2.9552 20.8667C2.78273 21.0392 2.72232 21.2947 2.79975 21.5263C2.87717 21.758 3.07857 21.926 3.32026 21.9606C4.51993 22.1313 5.72708 21.7402 6.60079 20.8673C7.57385 19.8936 7.95781 18.4623 7.60221 17.1311L17.1317 7.60198L17.1323 7.60263C18.4654 7.95574 19.898 7.57053 20.8679 6.60061C21.7227 5.74585 22.1318 4.51915 21.9618 3.31948Z" fill="#00D26B"/>
<path d="M18.1315 14.2654C17.8262 14.2654 17.5121 14.3113 17.1433 14.4089L14.6452 11.9111L11.9102 14.6459L14.4079 17.1437C14.3103 17.5132 14.2643 17.8273 14.2643 18.1325C14.2643 20.265 15.999 21.9996 18.1315 21.9996C20.2639 21.9996 21.9986 20.265 21.9986 18.1325C21.9986 16 20.2639 14.2654 18.1315 14.2654ZM20.2463 18.0035L19.863 19.4335C19.8032 19.6557 19.6295 19.8294 19.4073 19.8892L17.9773 20.2725C17.7672 20.3304 17.5245 20.2754 17.3548 20.1057L16.3081 19.059C16.1451 18.896 16.0815 18.6587 16.1413 18.4365L16.5246 17.0065C16.5844 16.7843 16.7582 16.6106 16.9803 16.5508L18.4103 16.1675C18.6313 16.1058 18.8692 16.1713 19.0328 16.3343L20.0795 17.381C20.2425 17.544 20.3061 17.7813 20.2463 18.0035Z" fill="#00D26B"/>
<path d="M7.60099 4.83138C7.9566 3.50019 7.57263 2.06827 6.59958 1.09517C5.1387 -0.365057 2.59017 -0.365057 1.13059 1.09517C-0.376863 2.60327 -0.376863 5.05671 1.13059 6.56416C2.09926 7.53283 3.53371 7.92242 4.8668 7.56557L7.3538 10.0881L10.0884 7.35387L7.60099 4.83138ZM5.91539 3.63614L5.53207 5.06616C5.47226 5.28835 5.29854 5.46207 5.0764 5.52184L3.64637 5.90516C3.4363 5.96308 3.19358 5.90808 3.02389 5.73835L1.97719 4.69165C1.81417 4.52863 1.75062 4.29136 1.81039 4.06917L2.19371 2.63915C2.25352 2.41696 2.42724 2.24324 2.64938 2.18347L4.07941 1.80015C4.3016 1.73974 4.53887 1.80393 4.70189 1.96695L5.74859 3.01366C5.91161 3.17668 5.97516 3.41395 5.91539 3.63614Z" fill="#00D26B"/>
</svg>
