<svg width="27" height="27" viewBox="0 0 27 27" fill="none" xmlns="http://www.w3.org/2000/svg">
<path d="M26.4412 18.9682L25.764 18.8844L25.6178 18.5314L26.0373 17.9934C26.1328 17.8708 26.1803 17.7176 26.1707 17.5625C26.1612 17.4073 26.0953 17.2611 25.9854 17.1512L24.4555 15.6212C24.3456 15.5113 24.1993 15.4454 24.0442 15.4359C23.889 15.4263 23.7358 15.4738 23.6132 15.5694L23.0752 15.9888L22.7222 15.8426L22.6384 15.1655C22.6193 15.0112 22.5445 14.8693 22.4281 14.7663C22.3116 14.6634 22.1615 14.6066 22.0061 14.6066H19.8427C19.6873 14.6066 19.5373 14.6634 19.4208 14.7664C19.3044 14.8693 19.2295 15.0112 19.2105 15.1655L19.1266 15.8427L18.7736 15.9889L18.2356 15.5695C18.1131 15.474 17.9598 15.4265 17.8047 15.436C17.6495 15.4456 17.5033 15.5115 17.3934 15.6214L15.8635 17.1513C15.7536 17.2612 15.6876 17.4075 15.6781 17.5626C15.6685 17.7177 15.716 17.871 15.8116 17.9935L16.231 18.5316L16.0848 18.8846L15.4077 18.9683C15.2534 18.9874 15.1115 19.0622 15.0086 19.1787C14.9056 19.2951 14.8488 19.4452 14.8488 19.6006V20.1649L11.9222 22.7258L8.22028 19.4868L9.5569 19.0858C9.68813 19.0465 9.80318 18.9658 9.88497 18.8559C9.96676 18.746 10.0109 18.6126 10.0109 18.4756V16.9672C10.6746 17.252 11.3435 17.4138 11.9222 17.4138C13.0114 17.4138 14.4195 16.8408 15.5097 15.9542C16.4808 15.1642 17.1453 14.1809 17.4556 13.1017C18.6441 12.7442 19.3549 10.9864 19.3549 9.98108C19.3549 9.53342 19.2242 9.1768 18.9665 8.92096C18.6912 8.64791 18.3444 8.54709 17.9615 8.5112C18.3135 8.09175 18.5061 7.56157 18.5055 7.01404V4.0349C18.5042 2.96516 18.0787 1.93957 17.3223 1.18315C16.5659 0.42672 15.5403 0.00122248 14.4706 0H9.37384C8.30409 0.00122248 7.27851 0.42672 6.52208 1.18315C5.76565 1.93957 5.34016 2.96516 5.33893 4.0349V7.01404C5.33833 7.56157 5.53094 8.09175 5.88285 8.5112C5.50012 8.54715 5.15312 8.64797 4.87795 8.92096C4.62019 9.1768 4.48948 9.53342 4.48948 9.98108C4.48948 10.9864 5.20026 12.7442 6.38875 13.1017C6.69912 14.1811 7.36355 15.1642 8.33474 15.9542C8.46455 16.0598 8.59898 16.1607 8.73675 16.2568V18.0014L1.90672 20.0506C1.42436 20.1929 1.00126 20.4881 0.701082 20.8916C0.400901 21.2951 0.239869 21.7852 0.242213 22.2881V26.1207C0.242213 26.2897 0.309335 26.4517 0.428812 26.5712C0.54829 26.6907 0.710336 26.7578 0.879303 26.7578C1.04827 26.7578 1.21032 26.6907 1.32979 26.5712C1.44927 26.4517 1.51639 26.2897 1.51639 26.1207V22.2881C1.51745 22.06 1.59144 21.8383 1.72754 21.6553C1.86365 21.4723 2.05472 21.3377 2.27283 21.2711L6.77934 19.9191L11.5028 24.0518C11.6189 24.1534 11.7679 24.2093 11.9222 24.2093C12.0765 24.2093 12.2255 24.1534 12.3416 24.0518L14.8557 21.8522C14.875 21.991 14.9396 22.1197 15.0394 22.2181C15.1392 22.3165 15.2688 22.3792 15.4079 22.3965L16.085 22.4803L16.2312 22.8333L15.8118 23.3713C15.7162 23.4938 15.6687 23.6471 15.6783 23.8022C15.6879 23.9573 15.7538 24.1036 15.8637 24.2135L17.3936 25.7434C17.5035 25.8533 17.6498 25.9192 17.8049 25.9288C17.96 25.9383 18.1133 25.8909 18.2358 25.7953L18.7738 25.3759L19.1268 25.5221L19.2106 26.1992C19.2298 26.3534 19.3046 26.4952 19.421 26.5981C19.5374 26.701 19.6874 26.7578 19.8427 26.7578H22.0062C22.1616 26.7578 22.3117 26.701 22.4282 26.5981C22.5446 26.4951 22.6194 26.3532 22.6385 26.1989L22.7223 25.5218L23.0753 25.3756L23.6133 25.795C23.7359 25.8906 23.8892 25.9381 24.0443 25.9285C24.1994 25.919 24.3457 25.8531 24.4556 25.7432L25.9855 24.2132C26.0954 24.1033 26.1613 23.9571 26.1709 23.8019C26.1804 23.6468 26.1329 23.4936 26.0374 23.371L25.6179 22.833L25.7642 22.48L26.4413 22.3962C26.5955 22.3771 26.7374 22.3023 26.8403 22.1859C26.9432 22.0694 27 21.9194 27 21.764V19.6005C27 19.4451 26.9432 19.295 26.8403 19.1786C26.7373 19.0621 26.5954 18.9873 26.4412 18.9682ZM6.99717 7.83053C6.88398 7.73711 6.79149 7.62113 6.72561 7.48999C6.65972 7.35884 6.62188 7.21541 6.61449 7.06883C10.0926 6.14415 13.7518 6.14415 17.2299 7.06883C17.2219 7.22054 17.1814 7.36876 17.1113 7.50351C17.0411 7.63826 16.9429 7.75641 16.8232 7.84999C16.7035 7.94357 16.5652 8.0104 16.4175 8.046C16.2698 8.08159 16.1162 8.08511 15.967 8.05632C14.5306 7.7828 13.2263 7.64604 11.9222 7.64604C10.6181 7.64604 9.31385 7.7828 7.87737 8.05632C7.72308 8.086 7.56414 8.08115 7.41195 8.04211C7.25977 8.00307 7.11812 7.93081 6.99717 7.83053ZM18.0807 9.98108C18.0807 10.385 17.8937 10.9078 17.656 11.3045V9.76956C17.8341 9.77487 17.9958 9.7891 18.0633 9.82382C18.077 9.87507 18.0828 9.92808 18.0807 9.98108ZM9.37384 1.27418H14.4706C15.2025 1.27501 15.9042 1.56614 16.4218 2.08369C16.9393 2.60125 17.2305 3.30297 17.2313 4.0349V5.75468C13.7456 4.88271 10.0988 4.88271 6.61311 5.75468V4.0349C6.61394 3.30297 6.90507 2.60125 7.42263 2.08369C7.94018 1.56614 8.6419 1.27501 9.37384 1.27418ZM5.78107 9.82382C5.84866 9.7891 6.01032 9.77493 6.18839 9.76956V11.3045C5.9507 10.9078 5.76366 10.385 5.76366 9.98108C5.76155 9.92808 5.76742 9.87507 5.78107 9.82382ZM7.46257 11.68V9.33985C7.96847 9.39044 8.4825 9.21907 8.9747 9.15934C8.82092 9.20624 8.69056 9.30955 8.60977 9.44855C8.52897 9.58754 8.50371 9.75195 8.53906 9.90879C8.57441 10.0656 8.66775 10.2033 8.80036 10.2942C8.93297 10.3851 9.09504 10.4225 9.25407 10.3989C9.4131 10.3753 9.55733 10.2925 9.65783 10.167C9.75834 10.0415 9.80768 9.88263 9.79596 9.72229C9.78424 9.56194 9.71234 9.41195 9.59466 9.30241C9.47699 9.19286 9.32225 9.13186 9.16148 9.13162C9.16047 9.13162 9.15946 9.13162 9.15845 9.13162C10.9903 8.85194 12.8541 8.85194 14.686 9.13162C14.6849 9.13162 14.6839 9.13162 14.6829 9.13162C14.5222 9.13168 14.3673 9.19252 14.2496 9.30194C14.1318 9.41135 14.0597 9.56126 14.0478 9.72159C14.0359 9.88192 14.0851 10.0408 14.1854 10.1664C14.2858 10.292 14.4299 10.375 14.5889 10.3988C14.7479 10.4226 14.9101 10.3854 15.0428 10.2946C15.1755 10.2039 15.269 10.0663 15.3045 9.90948C15.34 9.75269 15.3149 9.58826 15.2343 9.44917C15.1537 9.31008 15.0234 9.20663 14.8697 9.15955C15.3603 9.21907 15.8789 9.39044 16.3818 9.34006V11.68C16.3818 14.6223 13.2559 16.1396 11.9222 16.1396C9.903 15.9963 7.44399 14.1904 7.46257 11.68ZM25.7258 21.2009L25.2392 21.2611C25.1274 21.275 25.0213 21.3182 24.9316 21.3865C24.842 21.4547 24.772 21.5455 24.7289 21.6496L24.2988 22.6884C24.2557 22.7925 24.241 22.9062 24.2562 23.0178C24.2713 23.1295 24.3158 23.2351 24.3851 23.3239L24.6866 23.7106L23.9526 24.4441L23.5659 24.1426C23.4771 24.0733 23.3715 24.0288 23.2598 24.0137C23.1482 23.9985 23.0345 24.0133 22.9304 24.0564L21.8916 24.4864C21.7875 24.5295 21.6967 24.5995 21.6285 24.6891C21.5602 24.7788 21.517 24.8849 21.5031 24.9968L21.4431 25.4836H20.4061L20.3459 24.997C20.3321 24.8852 20.2888 24.7791 20.2206 24.6894C20.1523 24.5997 20.0615 24.5298 19.9574 24.4867L18.9186 24.0566C18.8145 24.0135 18.7009 23.9988 18.5892 24.0139C18.4776 24.0291 18.372 24.0736 18.2831 24.1428L17.8965 24.4443L17.1627 23.7104L17.4642 23.3237C17.5335 23.2349 17.578 23.1292 17.5931 23.0176C17.6082 22.906 17.5935 22.7923 17.5504 22.6882L17.1201 21.6494C17.077 21.5453 17.007 21.4545 16.9174 21.3862C16.8277 21.318 16.7216 21.2748 16.6098 21.2609L16.1232 21.2007V20.1639L16.6098 20.1037C16.7216 20.0899 16.8277 20.0466 16.9174 19.9784C17.007 19.9101 17.077 19.8193 17.1201 19.7152L17.5504 18.6764C17.5935 18.5723 17.6082 18.4587 17.5931 18.347C17.578 18.2354 17.5335 18.1297 17.4642 18.0409L17.1627 17.6542L17.8962 16.9207L18.2829 17.2222C18.3717 17.2915 18.4773 17.336 18.589 17.3511C18.7006 17.3663 18.8143 17.3516 18.9184 17.3085L19.9572 16.8782C20.0613 16.835 20.1521 16.7651 20.2203 16.6754C20.2886 16.5858 20.3318 16.4796 20.3456 16.3678L20.4059 15.8812H21.4431L21.5033 16.3678C21.5172 16.4796 21.5604 16.5858 21.6287 16.6754C21.6969 16.7651 21.7877 16.835 21.8918 16.8782L22.9306 17.3085C23.0347 17.3516 23.1484 17.3663 23.26 17.3511C23.3717 17.336 23.4773 17.2915 23.5661 17.2222L23.9528 16.9207L24.6863 17.6542L24.3848 18.0409C24.3155 18.1297 24.271 18.2354 24.2559 18.347C24.2407 18.4587 24.2555 18.5723 24.2986 18.6764L24.7286 19.7152C24.7717 19.8193 24.8417 19.9101 24.9313 19.9784C25.021 20.0466 25.1272 20.0899 25.239 20.1037L25.7258 20.1639V21.2009Z" fill="#00D26B"/>
</svg>
