<svg width="21" height="24" viewBox="0 0 21 24" fill="none" xmlns="http://www.w3.org/2000/svg">
<path d="M20.1689 7.62463C20.1689 7.604 20.1584 7.58827 20.1584 7.56869L18.3294 0.911103C18.274 0.410975 17.7709 0 17.2103 0H2.95916C2.39838 0 1.8944 0.410975 1.83934 0.911103L0.0106633 7.56869C0.0106633 7.58827 0 7.604 0 7.62463V9.45732C0 9.93315 0.18687 10.3651 0.486842 10.6913L0.0106633 13.4452C0.0106633 13.4653 0 13.4818 0 13.502V15.3344C0 15.8099 0.18687 16.2422 0.486842 16.5685L0.0106633 19.3225C0.0106633 19.3424 0 19.3587 0 19.3788V21.2115C0 22.2226 0.822649 23.0452 1.83357 23.0452H18.3348C19.3459 23.0452 20.1686 22.2226 20.1686 21.2115V19.3788C20.1686 19.3587 20.1581 19.3424 20.1581 19.3225L19.6815 16.5685C19.9819 16.2423 20.1684 15.812 20.1684 15.3344V13.502C20.1684 13.4818 20.1579 13.4653 20.1579 13.4452L19.6814 10.6915C19.9817 10.3653 20.1682 9.9342 20.1682 9.4575V7.62463H20.1689ZM19.2515 21.2115C19.2515 21.7175 18.84 22.1287 18.335 22.1287H1.83462C1.33012 22.1287 0.91792 21.7174 0.91792 21.2115V19.3788C0.91792 18.8727 1.33012 18.4614 1.83462 18.4614H18.3364C18.8402 18.4614 19.2534 18.8729 19.2534 19.3788V21.2115H19.2515ZM19.2515 15.3344C19.2515 15.8406 18.84 16.2518 18.335 16.2518H1.83462C1.33012 16.2518 0.91792 15.8405 0.91792 15.3344V13.502C0.91792 12.9958 1.33012 12.5845 1.83462 12.5845H18.3364C18.8402 12.5845 19.2534 12.996 19.2534 13.502V15.3344H19.2515ZM19.2515 9.4575C19.2515 9.96305 18.84 10.3752 18.335 10.3752H1.83462C1.33012 10.3752 0.91792 9.96305 0.91792 9.4575V7.62463C0.91792 7.11908 1.33012 6.70688 1.83462 6.70688H18.3364C18.8402 6.70688 19.2534 7.11908 19.2534 7.62463V9.45732H19.2515V9.4575Z" fill="#00D26B"/>
</svg>
