<svg width="24" height="23" viewBox="0 0 24 23" fill="none" xmlns="http://www.w3.org/2000/svg">
<path d="M22.4097 7.23813C21.6216 6.44993 20.3391 6.44997 19.5507 7.23831C19.3082 7.48102 17.76 9.03051 17.5234 9.26725V3.92734C17.5234 3.38738 17.3132 2.87976 16.9313 2.49797L15.0255 0.59207C14.6437 0.210234 14.1361 0 13.5961 0H2.02539C0.910744 0 0.00390625 0.906838 0.00390625 2.02148V20.9785C0.00390625 22.0932 0.910744 23 2.02539 23H15.502C16.6166 23 17.5234 22.0932 17.5234 20.9785V14.9873L22.4097 10.097C23.1997 9.30696 23.1999 8.02821 22.4097 7.23813ZM13.4805 1.34766C13.6078 1.34766 13.8531 1.3256 14.0726 1.545L15.9784 3.4509C16.1923 3.66477 16.1758 3.89913 16.1758 4.04297H13.4805V1.34766ZM16.1758 20.9785C16.1758 21.3501 15.8735 21.6523 15.502 21.6523H2.02539C1.65384 21.6523 1.35156 21.3501 1.35156 20.9785V2.02148C1.35156 1.64994 1.65384 1.34766 2.02539 1.34766H12.1328V4.7168C12.1328 5.08893 12.4345 5.39062 12.8066 5.39062H16.1758V10.6161C16.1758 10.6161 14.1878 12.6058 14.1877 12.6058L13.2352 13.5583C13.1613 13.6323 13.1055 13.7225 13.0724 13.8217L12.1195 16.6805C12.0387 16.9227 12.1018 17.1896 12.2823 17.3701C12.463 17.5508 12.7301 17.6135 12.9718 17.5329L15.8306 16.5799C15.9299 16.5469 16.0201 16.4911 16.094 16.4171L16.1758 16.3354V20.9785ZM14.6646 14.0348L15.6175 14.9877L15.2535 15.3517L13.8242 15.8282L14.3006 14.3988L14.6646 14.0348ZM16.5703 14.0346L15.6174 13.0817C16.1248 12.5738 18.3785 10.3182 18.8564 9.83982L19.8094 10.7927L16.5703 14.0346ZM21.4566 9.14421L20.7619 9.83942L19.809 8.88649L20.5039 8.19105C20.7668 7.92831 21.1941 7.92835 21.4568 8.19105C21.7195 8.45385 21.7209 8.87984 21.4566 9.14421Z" fill="#00D26B"/>
<path d="M12.8066 6.73828H3.37305C3.00091 6.73828 2.69922 7.03998 2.69922 7.41211C2.69922 7.78424 3.00091 8.08594 3.37305 8.08594H12.8066C13.1788 8.08594 13.4805 7.78424 13.4805 7.41211C13.4805 7.03998 13.1788 6.73828 12.8066 6.73828Z" fill="#00D26B"/>
<path d="M10.1113 9.43359H3.37305C3.00091 9.43359 2.69922 9.73529 2.69922 10.1074C2.69922 10.4796 3.00091 10.7812 3.37305 10.7812H10.1113C10.4835 10.7812 10.7852 10.4796 10.7852 10.1074C10.7852 9.73529 10.4835 9.43359 10.1113 9.43359Z" fill="#00D26B"/>
<path d="M10.1113 12.1289H3.37305C3.00091 12.1289 2.69922 12.4306 2.69922 12.8027C2.69922 13.1749 3.00091 13.4766 3.37305 13.4766H10.1113C10.4835 13.4766 10.7852 13.1749 10.7852 12.8027C10.7852 12.4306 10.4835 12.1289 10.1113 12.1289Z" fill="#00D26B"/>
<path d="M10.1113 14.8242H3.37305C3.00091 14.8242 2.69922 15.1259 2.69922 15.498C2.69922 15.8702 3.00091 16.1719 3.37305 16.1719H10.1113C10.4835 16.1719 10.7852 15.8702 10.7852 15.498C10.7852 15.1259 10.4835 14.8242 10.1113 14.8242Z" fill="#00D26B"/>
<path d="M12.8066 18.957H8.76367C8.39154 18.957 8.08984 19.2587 8.08984 19.6309C8.08984 20.003 8.39154 20.3047 8.76367 20.3047H12.8066C13.1788 20.3047 13.4805 20.003 13.4805 19.6309C13.4805 19.2587 13.1788 18.957 12.8066 18.957Z" fill="#00D26B"/>
</svg>
