<svg width="21" height="21" viewBox="0 0 21 21" fill="none" xmlns="http://www.w3.org/2000/svg">
<path d="M20.9636 3.16864C20.9306 2.93793 20.7702 2.74565 20.5491 2.67178C20.3292 2.5973 20.0847 2.65554 19.9194 2.82018L19.0495 3.69077C18.5844 4.1558 17.7739 4.1558 17.3089 3.69077C16.8277 3.20958 16.8279 2.43168 17.3089 1.95082L18.1789 1.08085C18.3435 0.916211 18.4012 0.672293 18.3273 0.45118C18.2533 0.230067 18.0611 0.0696568 17.8304 0.0366396C16.6823 -0.125576 15.5203 0.260131 14.699 1.08023C13.7701 2.00968 13.4036 3.37593 13.7431 4.64663L4.64672 13.7426L4.6461 13.742C3.38021 13.4062 2.00616 13.7727 1.08032 14.6985C0.264409 15.5144 -0.126097 16.6854 0.0361186 17.8305C0.0691768 18.0612 0.229587 18.2535 0.450659 18.3274C0.669967 18.4013 0.915074 18.3436 1.08032 18.179L1.9503 17.3084C2.41533 16.8434 3.22583 16.8434 3.69086 17.3084C4.17205 17.7895 4.1718 18.5674 3.69086 19.0483L2.82089 19.9183C2.65625 20.0829 2.59858 20.3269 2.67249 20.548C2.7464 20.7691 2.93864 20.9295 3.16935 20.9625C4.3145 21.1255 5.46678 20.7521 6.30078 19.9189C7.22961 18.9895 7.59612 17.6232 7.25668 16.3525L16.353 7.2565L16.3536 7.25712C17.6261 7.59418 18.9936 7.22648 19.9194 6.30065C20.7353 5.48473 21.1258 4.31379 20.9636 3.16864Z" fill="currentColor"/>
<path d="M17.3057 13.6169C17.0144 13.6169 16.7145 13.6607 16.3625 13.7539L13.9779 11.3696L11.3672 13.9801L13.7514 16.3644C13.6582 16.7171 13.6144 17.0169 13.6144 17.3083C13.6144 19.3438 15.2702 20.9996 17.3057 20.9996C19.3413 20.9996 20.9971 19.3438 20.9971 17.3083C20.9971 15.2727 19.3413 13.6169 17.3057 13.6169ZM19.3245 17.1851L18.9586 18.5501C18.9015 18.7622 18.7356 18.928 18.5236 18.9851L17.1586 19.351C16.9581 19.4063 16.7264 19.3538 16.5644 19.1918L15.5653 18.1926C15.4096 18.037 15.349 17.8105 15.406 17.5984L15.7719 16.2334C15.829 16.0213 15.9949 15.8555 16.2069 15.7984L17.5719 15.4326C17.7828 15.3737 18.0099 15.4362 18.1661 15.5918L19.1652 16.5909C19.3209 16.7465 19.3815 16.973 19.3245 17.1851Z" fill="currentColor"/>
<path d="M7.25552 4.61179C7.59496 3.3411 7.22845 1.97427 6.29962 1.0454C4.90514 -0.348465 2.47245 -0.348465 1.0792 1.0454C-0.359734 2.48495 -0.359734 4.82687 1.0792 6.26581C2.00385 7.19046 3.3731 7.56234 4.6456 7.22171L7.01956 9.62963L9.62985 7.01963L7.25552 4.61179ZM5.64653 3.47087L5.28063 4.8359C5.22354 5.04799 5.05772 5.21381 4.84567 5.27086L3.48064 5.63676C3.28012 5.69205 3.04842 5.63955 2.88646 5.47754L1.88732 4.47841C1.73171 4.3228 1.67105 4.09631 1.7281 3.88422L2.094 2.51919C2.15109 2.3071 2.31692 2.14128 2.52897 2.08423L3.89399 1.71833C4.10608 1.66066 4.33257 1.72194 4.48818 1.87755L5.48731 2.87668C5.64292 3.03229 5.70358 3.25878 5.64653 3.47087Z" fill="currentColor"/>
</svg>
